<svg preserveAspectRatio="none" width="100%" height="100%" overflow="visible" style="display: block;" viewBox="0 0 28.2783 28.2783" fill="none" xmlns="http://www.w3.org/2000/svg">
<path id="Union" d="M14.1533 0C14.9508 0 15.5974 0.645939 15.5977 1.44336V10.6523L22.1094 4.14062C22.6733 3.57703 23.5874 3.57703 24.1514 4.14062C24.7152 4.70445 24.7158 5.61855 24.1523 6.18262L17.626 12.709H26.835C27.6323 12.7094 28.2783 13.3559 28.2783 14.1533C28.2783 14.9507 27.6323 15.5973 26.835 15.5977H17.6553L24.1523 22.0947C24.7159 22.6588 24.7152 23.5729 24.1514 24.1367C23.5874 24.7004 22.6733 24.7003 22.1094 24.1367L15.5977 17.625V26.834C15.5977 27.6316 14.951 28.2783 14.1533 28.2783C13.3559 28.2781 12.709 27.6315 12.709 26.834V17.626L6.19824 24.1367C5.63422 24.7007 4.71929 24.7007 4.15527 24.1367C3.59172 23.5728 3.59181 22.6587 4.15527 22.0947L10.6523 15.5977H1.44434C0.646707 15.5977 2.73235e-05 14.9509 0 14.1533C0 13.3557 0.646691 12.709 1.44434 12.709H10.6807L4.15527 6.18359C3.59139 5.61964 3.5915 4.70464 4.15527 4.14062C4.71927 3.57662 5.63422 3.57667 6.19824 4.14062L12.709 10.6514V1.44336C12.7092 0.646075 13.356 0.000220858 14.1533 0Z" fill="var(--fill-0, #BF5A7A)"/>
</svg>
